<svg id="Ebene_1" data-name="Ebene 1" xmlns="http://www.w3.org/2000/svg" viewBox="0 0 147.4 147.4"><defs><style>.cls-1{fill:#e30613;}</style></defs><title>3ve_icon02</title><path class="cls-1" d="M39,31.26V68.41L23.49,52.94l-5.64,5.64L37.28,78.07,17.84,97.56l5.64,5.64L39,87.74v37.15L67.16,96.67l-18.6-18.6,18.6-18.6ZM55.93,96.62l-9,9v-18Zm-9-28.11v-18l9,9ZM81.08,71c1.06,1.06,3.89,5.4,2.51,6.77-.75.75-8.58.75-9.31,0s-.73-8.55,0-9.31C75.69,67.1,80,69.93,81.08,71ZM91.82,60.25C96,64.39,99.17,70.91,99.2,76.86a1.29,1.29,0,0,1-.36.92c-.67.67-8.75.64-9.42,0-.39-.39-.64-6.23-4.75-10.35s-9.92-4.33-10.34-4.75c-.67-.67-.7-8.75,0-9.42a1.29,1.29,0,0,1,.92-.36C81.17,52.9,87.68,56.12,91.82,60.25Zm37.74,16.61a1.29,1.29,0,0,1-.36.92c-.67.67-8.75.64-9.39,0a1.43,1.43,0,0,1-.36-.87c-.78-12.13-4.58-22.25-13.31-31s-18.84-12.52-31-13.31a1.43,1.43,0,0,1-.87-.36c-.64-.64-.67-8.72,0-9.39a1.3,1.3,0,0,1,.92-.36c14.09.06,28.18,6.37,38.08,16.27S129.5,62.77,129.56,76.86Zm-27-27.34c7,7,11.8,17.33,11.8,27.34a1.27,1.27,0,0,1-.34.9c-.67.67-8.72.67-9.37,0a1.8,1.8,0,0,1-.42-.87c-1-8.19-2.8-14.2-8.83-20.24C87,48.23,74.6,47.73,74.29,47.42c-.64-.64-.64-8.69,0-9.36a1.27,1.27,0,0,1,.89-.34C85.22,37.72,95.54,42.5,102.55,49.52Z"/></svg>